<svg xmlns="http://www.w3.org/2000/svg" id="Group_5152" data-name="Group 5152" width="20.096" height="16.447" viewBox="0 0 20.096 16.447"><path id="Path_115" data-name="Path 115" d="M17.953,20.546l-.274-.021a9.939,9.939,0,0,0-1.455-.057.263.263,0,0,0-.169.08c-.48.48-.962.931-1.249,1.181a1.9,1.9,0,0,1-1.524.45,1.882,1.882,0,0,1-1.329-.881.6.6,0,0,1,.082-.738L15.56,17,14.025,15.42a4.584,4.584,0,0,0-6.626,0,4.959,4.959,0,0,0,0,6.859l2.4,2.479,5.454,5.509a.626.626,0,0,0,.461.18,1.015,1.015,0,0,0,.7-.313.855.855,0,0,0,.132-1.174l-3.006-3.038a.234.234,0,0,1,.332-.331l3.006,3.035.2.2a.629.629,0,0,0,.457.178,1,1,0,0,0,.7-.313,1.04,1.04,0,0,0,.31-.71.659.659,0,0,0-.178-.466l-3.006-3.038a.236.236,0,0,1,0-.331.233.233,0,0,1,.329,0l3.2,3.234a.625.625,0,0,0,.457.178,1.006,1.006,0,0,0,.7-.313,1.04,1.04,0,0,0,.31-.71.644.644,0,0,0-.183-.466l-3-3.035a.234.234,0,1,1,.331-.331l3.2,3.231a.851.851,0,0,0,1.16-.135,1.018,1.018,0,0,0,.313-.708A.64.64,0,0,0,22,24.625l-4.045-4.091Z" transform="translate(-6.022 -14)" fill="#eac1a3"></path><path id="Path_116" data-name="Path 116" d="M42.115,14.029a7.66,7.66,0,0,0-3.956,2.313l-4.493,4.536a.127.127,0,0,0-.018.155,1.454,1.454,0,0,0,1.007.667,1.436,1.436,0,0,0,1.149-.34c.278-.244.751-.688,1.224-1.16a.746.746,0,0,1,.47-.215,10.307,10.307,0,0,1,1.526.054,8.212,8.212,0,0,0,1.7.032,4.6,4.6,0,0,0,2.227-1.08.228.228,0,0,1,.327.045.234.234,0,0,1-.045.329,5.037,5.037,0,0,1-2.458,1.174,5.8,5.8,0,0,1-.824.029l3.679,3.716a1.122,1.122,0,0,1,.187.269L46,22.309a4.974,4.974,0,0,0,1.42-3.476A4.886,4.886,0,0,0,46.042,15.4a4.639,4.639,0,0,0-3.926-1.378Z" transform="translate(-27.324 -13.987)" fill="#eac1a3"></path></svg>